<svg width="19" height="19" viewBox="0 0 19 19" fill="none" xmlns="http://www.w3.org/2000/svg">
<g clip-path="url(#clip0_3_37)">
<path d="M7.03636 16.2H11.6182" stroke="#BEBEBE" stroke-linecap="round" stroke-linejoin="round"/>
<path d="M4.18726 7.60909C4.18632 6.92984 4.31982 6.25712 4.58007 5.62971C4.84032 5.0023 5.22219 4.4326 5.70364 3.95346C6.1851 3.47431 6.75663 3.0952 7.38528 2.83796C8.01394 2.58073 8.6873 2.45047 9.36653 2.45469C12.2008 2.47576 14.4679 4.8316 14.4679 7.6738V8.18182C14.4679 10.7459 15.0043 12.2338 15.4768 13.047C15.5277 13.1339 15.5548 13.2327 15.5553 13.3334C15.5558 13.4341 15.5298 13.5331 15.4798 13.6206C15.4299 13.708 15.3577 13.7807 15.2707 13.8314C15.1837 13.882 15.0848 13.9088 14.9841 13.9091H3.67042C3.56971 13.9088 3.47084 13.882 3.3838 13.8313C3.29676 13.7807 3.22462 13.708 3.17466 13.6205C3.1247 13.5331 3.09868 13.434 3.09924 13.3333C3.0998 13.2326 3.1269 13.1338 3.17783 13.0469C3.65056 12.2336 4.18726 10.7458 4.18726 8.18182L4.18726 7.60909Z" stroke="#BEBEBE" stroke-linecap="round" stroke-linejoin="round"/>
</g>
<defs>
<clipPath id="clip0_3_37">
<rect width="18.3273" height="18.3273" fill="white" transform="translate(0.163636 0.163635)"/>
</clipPath>
</defs>
</svg>
