<svg width="28" height="28" viewBox="0 0 28 28" fill="none" xmlns="http://www.w3.org/2000/svg">
<path fill-rule="evenodd" clip-rule="evenodd" d="M7.56262 3.5H9.06238C9.58843 3.5 10.0127 3.49999 10.3581 3.52355C10.7132 3.54778 11.0272 3.59886 11.3245 3.72202C12.0392 4.01804 12.607 4.58583 12.903 5.30049C13.0261 5.59781 13.0772 5.91185 13.1015 6.26693C13.125 6.61229 13.125 7.03657 13.125 7.56262V9.06238C13.125 9.58843 13.125 10.0128 13.1015 10.3581C13.0772 10.7132 13.0261 11.0272 12.903 11.3245C12.607 12.0392 12.0392 12.607 11.3245 12.903C11.0272 13.0261 10.7132 13.0772 10.3581 13.1015C10.0127 13.125 9.58843 13.125 9.06238 13.125H7.56262C7.03657 13.125 6.61229 13.125 6.26693 13.1015C5.91185 13.0772 5.59781 13.0261 5.30049 12.903C4.58583 12.607 4.01804 12.0392 3.72202 11.3245C3.59886 11.0272 3.54778 10.7132 3.52355 10.3581C3.49999 10.0127 3.5 9.58843 3.5 9.06238V7.56262C3.5 7.03657 3.49999 6.61229 3.52355 6.26693C3.54778 5.91185 3.59886 5.59781 3.72202 5.30049C4.01804 4.58583 4.58583 4.01804 5.30049 3.72202C5.59781 3.59886 5.91185 3.54778 6.26693 3.52355C6.61229 3.49999 7.03657 3.5 7.56262 3.5ZM6.34633 4.68751C6.05063 4.70768 5.87843 4.74543 5.74696 4.79986C5.31816 4.97748 4.97748 5.31816 4.79986 5.74696C4.74543 5.87843 4.70768 6.05063 4.68751 6.34633C4.66699 6.64729 4.66668 7.03176 4.66668 7.58332V9.04168C4.66668 9.59324 4.66699 9.97771 4.68751 10.2787C4.70768 10.5744 4.74543 10.7466 4.79986 10.878C4.97748 11.3068 5.31816 11.6475 5.74696 11.8251C5.87843 11.8796 6.05063 11.9173 6.34633 11.9375C6.64729 11.958 7.03176 11.9583 7.58332 11.9583H9.04168C9.59324 11.9583 9.97771 11.958 10.2787 11.9375C10.5744 11.9173 10.7466 11.8796 10.878 11.8251C11.3068 11.6475 11.6475 11.3068 11.8251 10.878C11.8796 10.7466 11.9173 10.5744 11.9375 10.2787C11.958 9.97771 11.9583 9.59324 11.9583 9.04168V7.58332C11.9583 7.03176 11.958 6.64729 11.9375 6.34633C11.9173 6.05063 11.8796 5.87843 11.8251 5.74696C11.6475 5.31816 11.3068 4.97748 10.878 4.79986C10.7466 4.74543 10.5744 4.70768 10.2787 4.68751C9.97771 4.66699 9.59324 4.66668 9.04168 4.66668H7.58332C7.03176 4.66668 6.64729 4.66699 6.34633 4.68751ZM7.56262 14.875H9.06238C9.58843 14.875 10.0127 14.875 10.3581 14.8985C10.7132 14.9228 11.0272 14.9739 11.3245 15.097C12.0392 15.393 12.607 15.9608 12.903 16.6755C13.0261 16.9728 13.0772 17.2869 13.1015 17.6419C13.125 17.9873 13.125 18.4116 13.125 18.9376V20.4374C13.125 20.9634 13.125 21.3878 13.1015 21.7331C13.0772 22.0882 13.0261 22.4022 12.903 22.6995C12.607 23.4142 12.0392 23.982 11.3245 24.278C11.0272 24.4011 10.7132 24.4522 10.3581 24.4765C10.0127 24.5 9.58843 24.5 9.06238 24.5H7.56262C7.03657 24.5 6.61229 24.5 6.26693 24.4765C5.91185 24.4522 5.59781 24.4011 5.30049 24.278C4.58583 23.982 4.01804 23.4142 3.72202 22.6995C3.59886 22.4022 3.54778 22.0882 3.52355 21.7331C3.49999 21.3877 3.5 20.9634 3.5 20.4374V18.9376C3.5 18.4116 3.49999 17.9873 3.52355 17.6419C3.54778 17.2869 3.59886 16.9728 3.72202 16.6755C4.01804 15.9608 4.58583 15.393 5.30049 15.097C5.59781 14.9739 5.91185 14.9228 6.26693 14.8985C6.61229 14.875 7.03657 14.875 7.56262 14.875ZM6.34633 16.0625C6.05063 16.0827 5.87843 16.1204 5.74696 16.1749C5.31816 16.3525 4.97748 16.6932 4.79986 17.122C4.74543 17.2534 4.70768 17.4256 4.68751 17.7213C4.66699 18.0223 4.66668 18.4068 4.66668 18.9583V20.4167C4.66668 20.9682 4.66699 21.3527 4.68751 21.6537C4.70768 21.9494 4.74543 22.1216 4.79986 22.253C4.97748 22.6818 5.31816 23.0225 5.74696 23.2001C5.87843 23.2546 6.05063 23.2923 6.34633 23.3125C6.64729 23.333 7.03176 23.3333 7.58332 23.3333H9.04168C9.59324 23.3333 9.97771 23.333 10.2787 23.3125C10.5744 23.2923 10.7466 23.2546 10.878 23.2001C11.3068 23.0225 11.6475 22.6818 11.8251 22.253C11.8796 22.1216 11.9173 21.9494 11.9375 21.6537C11.958 21.3527 11.9583 20.9682 11.9583 20.4167V18.9583C11.9583 18.4068 11.958 18.0223 11.9375 17.7213C11.9173 17.4256 11.8796 17.2534 11.8251 17.122C11.6475 16.6932 11.3068 16.3525 10.878 16.1749C10.7466 16.1204 10.5744 16.0827 10.2787 16.0625C9.97771 16.042 9.59324 16.0417 9.04168 16.0417H7.58332C7.03176 16.0417 6.64729 16.042 6.34633 16.0625ZM18.9376 3.5H20.4374C20.9634 3.5 21.3877 3.49999 21.7331 3.52355C22.0882 3.54778 22.4022 3.59886 22.6995 3.72202C23.4142 4.01804 23.982 4.58583 24.278 5.30049C24.4011 5.59781 24.4522 5.91185 24.4765 6.26693C24.5 6.61229 24.5 7.03657 24.5 7.56262V9.06238C24.5 9.58843 24.5 10.0128 24.4765 10.3581C24.4522 10.7132 24.4011 11.0272 24.278 11.3245C23.982 12.0392 23.4142 12.607 22.6995 12.903C22.4022 13.0261 22.0882 13.0772 21.7331 13.1015C21.3877 13.125 20.9634 13.125 20.4374 13.125H18.9376C18.4116 13.125 17.9873 13.125 17.6419 13.1015C17.2869 13.0772 16.9728 13.0261 16.6755 12.903C15.9608 12.607 15.393 12.0392 15.097 11.3245C14.9739 11.0272 14.9228 10.7132 14.8985 10.3581C14.875 10.0127 14.875 9.58843 14.875 9.06238V7.56262C14.875 7.03657 14.875 6.61229 14.8985 6.26693C14.9228 5.91185 14.9739 5.59781 15.097 5.30049C15.393 4.58583 15.9608 4.01804 16.6755 3.72202C16.9728 3.59886 17.2869 3.54778 17.6419 3.52355C17.9873 3.49999 18.4116 3.5 18.9376 3.5ZM17.7213 4.68751C17.4256 4.70768 17.2534 4.74543 17.122 4.79986C16.6932 4.97748 16.3525 5.31816 16.1749 5.74696C16.1204 5.87843 16.0827 6.05063 16.0625 6.34633C16.042 6.64729 16.0417 7.03176 16.0417 7.58332V9.04168C16.0417 9.59324 16.042 9.97771 16.0625 10.2787C16.0827 10.5744 16.1204 10.7466 16.1749 10.878C16.3525 11.3068 16.6932 11.6475 17.122 11.8251C17.2534 11.8796 17.4256 11.9173 17.7213 11.9375C18.0223 11.958 18.4068 11.9583 18.9583 11.9583H20.4167C20.9682 11.9583 21.3527 11.958 21.6537 11.9375C21.9494 11.9173 22.1216 11.8796 22.253 11.8251C22.6818 11.6475 23.0225 11.3068 23.2001 10.878C23.2546 10.7466 23.2923 10.5744 23.3125 10.2787C23.333 9.97771 23.3333 9.59324 23.3333 9.04168V7.58332C23.3333 7.03176 23.333 6.64729 23.3125 6.34633C23.2923 6.05063 23.2546 5.87843 23.2001 5.74696C23.0225 5.31816 22.6818 4.97748 22.253 4.79986C22.1216 4.74543 21.9494 4.70768 21.6537 4.68751C21.3527 4.66699 20.9682 4.66668 20.4167 4.66668H18.9583C18.4068 4.66668 18.0223 4.66699 17.7213 4.68751ZM18.9376 14.875H20.4374C20.9634 14.875 21.3877 14.875 21.7331 14.8985C22.0882 14.9228 22.4022 14.9739 22.6995 15.097C23.4142 15.393 23.982 15.9608 24.278 16.6755C24.4011 16.9728 24.4522 17.2869 24.4765 17.6419C24.5 17.9873 24.5 18.4116 24.5 18.9376V20.4374C24.5 20.9634 24.5 21.3878 24.4765 21.7331C24.4522 22.0882 24.4011 22.4022 24.278 22.6995C23.982 23.4142 23.4142 23.982 22.6995 24.278C22.4022 24.4011 22.0882 24.4522 21.7331 24.4765C21.3877 24.5 20.9634 24.5 20.4374 24.5H18.9376C18.4116 24.5 17.9873 24.5 17.6419 24.4765C17.2869 24.4522 16.9728 24.4011 16.6755 24.278C15.9608 23.982 15.393 23.4142 15.097 22.6995C14.9739 22.4022 14.9228 22.0882 14.8985 21.7331C14.875 21.3877 14.875 20.9634 14.875 20.4374V18.9376C14.875 18.4116 14.875 17.9873 14.8985 17.6419C14.9228 17.2869 14.9739 16.9728 15.097 16.6755C15.393 15.9608 15.9608 15.393 16.6755 15.097C16.9728 14.9739 17.2869 14.9228 17.6419 14.8985C17.9873 14.875 18.4116 14.875 18.9376 14.875ZM17.7213 16.0625C17.4256 16.0827 17.2534 16.1204 17.122 16.1749C16.6932 16.3525 16.3525 16.6932 16.1749 17.122C16.1204 17.2534 16.0827 17.4256 16.0625 17.7213C16.042 18.0223 16.0417 18.4068 16.0417 18.9583V20.4167C16.0417 20.9682 16.042 21.3527 16.0625 21.6537C16.0827 21.9494 16.1204 22.1216 16.1749 22.253C16.3525 22.6818 16.6932 23.0225 17.122 23.2001C17.2534 23.2546 17.4256 23.2923 17.7213 23.3125C18.0223 23.333 18.4068 23.3333 18.9583 23.3333H20.4167C20.9682 23.3333 21.3527 23.333 21.6537 23.3125C21.9494 23.2923 22.1216 23.2546 22.253 23.2001C22.6818 23.0225 23.0225 22.6818 23.2001 22.253C23.2546 22.1216 23.2923 21.9494 23.3125 21.6537C23.333 21.3527 23.3333 20.9682 23.3333 20.4167V18.9583C23.3333 18.4068 23.333 18.0223 23.3125 17.7213C23.2923 17.4256 23.2546 17.2534 23.2001 17.122C23.0225 16.6932 22.6818 16.3525 22.253 16.1749C22.1216 16.1204 21.9494 16.0827 21.6537 16.0625C21.3527 16.042 20.9682 16.0417 20.4167 16.0417H18.9583C18.4068 16.0417 18.0223 16.042 17.7213 16.0625Z" fill="#BEBEBE"/>
</svg>
