<svg width="39" height="39" viewBox="0 0 39 39" fill="none" xmlns="http://www.w3.org/2000/svg">
<path d="M34.8812 6.08083L5.00873 11.8566L8.31468 28.9551L38.1871 23.1793L34.8812 6.08083Z" fill="#569F7D"/>
<path d="M32.9959 10.762L2.73346 13.9096L4.53509 31.2313L34.7975 28.0837L32.9959 10.762Z" fill="#60B18B"/>
<path d="M31.2382 15.5033H0.8125V32.9184H31.2382V15.5033Z" fill="#8ED8B5"/>
<path d="M28.4375 28.0134C27.7905 28.0149 27.1705 28.273 26.7136 28.731C26.2566 29.189 26 29.8096 26 30.4566H6.05557C6.05557 30.1357 5.99235 29.8179 5.86952 29.5214C5.74669 29.2249 5.56665 28.9556 5.33969 28.7287C5.11273 28.5018 4.8433 28.3219 4.54679 28.1991C4.25027 28.0764 3.93248 28.0133 3.61157 28.0134V20.4092C3.93252 20.4092 4.25033 20.346 4.54685 20.2232C4.84337 20.1003 5.11279 19.9203 5.33974 19.6934C5.56669 19.4664 5.74671 19.197 5.86953 18.9005C5.99236 18.604 6.05557 18.2861 6.05557 17.9652H26C25.9998 18.6123 26.2563 19.2331 26.7133 19.6913C27.1703 20.1495 27.7904 20.4077 28.4375 20.4092V28.0134Z" fill="#B1DFBC"/>
<path d="M16.0257 27.8769C18.0504 27.8769 19.6917 26.2356 19.6917 24.2109C19.6917 22.1862 18.0504 20.5449 16.0257 20.5449C14.0011 20.5449 12.3597 22.1862 12.3597 24.2109C12.3597 26.2356 14.0011 27.8769 16.0257 27.8769Z" fill="#8ED8B5"/>
<path d="M33.5936 7.93893L36.5999 23.4869L38.1875 23.1798L34.8814 6.08156L5.00906 11.8576L5.30888 13.4079L33.5936 7.93893Z" fill="#60B18B"/>
<path d="M31.7078 12.6197L33.332 28.236L34.797 28.0841L32.9957 10.7624L2.73328 13.91L2.9104 15.6154L31.7078 12.6197Z" fill="#8ED8B5"/>
<path d="M0.8125 15.5033V17.1527H29.575V32.9184H31.2382V15.5033H0.8125Z" fill="#B1DFBC"/>
<path d="M4.28026 20.3044C4.06335 20.3704 3.83827 20.4057 3.61157 20.4092V21.3956C3.92768 21.0979 4.15853 20.7212 4.28026 20.3044ZM24.9828 30.4566H26C26.0033 30.2225 26.0405 29.9901 26.1105 29.7668C25.678 29.8879 25.2876 30.1267 24.9828 30.4566Z" fill="#8ED8B5"/>
<path d="M26 17.9652H6.05555C6.05446 18.5773 5.82232 19.1663 5.40555 19.6146H24.3368C24.3368 19.9355 24.4 20.2533 24.5229 20.5497C24.6457 20.8462 24.8257 21.1156 25.0527 21.3425C25.2796 21.5693 25.5491 21.7493 25.8456 21.872C26.1421 21.9947 26.4599 22.0579 26.7808 22.0578V28.6756C27.229 28.2526 27.8212 28.0158 28.4375 28.0134V20.4092C27.7904 20.4077 27.1703 20.1495 26.7133 19.6913C26.2563 19.2331 25.9998 18.6123 26 17.9652Z" fill="#C1ECD0"/>
<path d="M16.0258 20.5449C15.3465 20.5467 14.6812 20.7377 14.1044 21.0965C13.5276 21.4553 13.0622 21.9676 12.7603 22.5761C13.2576 22.327 13.8056 22.1958 14.3618 22.1926C14.8432 22.1926 15.3199 22.2875 15.7647 22.4717C16.2094 22.6559 16.6136 22.926 16.954 23.2664C17.2944 23.6068 17.5645 24.0109 17.7487 24.4557C17.9329 24.9005 18.0278 25.3772 18.0278 25.8586C18.0242 26.4269 17.8869 26.9863 17.6272 27.4918C18.3735 27.1312 18.9753 26.5278 19.3337 25.7804C19.692 25.033 19.7859 24.1861 19.5997 23.3784C19.4136 22.5707 18.9585 21.8502 18.3091 21.3351C17.6597 20.8199 16.8546 20.5407 16.0258 20.5433V20.5449Z" fill="#B1DFBC"/>
<path d="M31.2382 33.7309H0.8125C0.597012 33.7309 0.390349 33.6453 0.237976 33.493C0.0856024 33.3406 0 33.1339 0 32.9184V15.5033C0 15.2878 0.0856024 15.0812 0.237976 14.9288C0.390349 14.7764 0.597012 14.6908 0.8125 14.6908H31.2382C31.4537 14.6908 31.6603 14.7764 31.8127 14.9288C31.9651 15.0812 32.0507 15.2878 32.0507 15.5033V32.9184C32.0507 33.1339 31.9651 33.3406 31.8127 33.493C31.6603 33.6453 31.4537 33.7309 31.2382 33.7309ZM1.625 32.1059H30.4257V16.3158H1.625V32.1059Z" fill="#1C1C1B"/>
<path d="M26 31.2691H6.05557C5.84008 31.2691 5.63342 31.1835 5.48105 31.0311C5.32867 30.8787 5.24307 30.6721 5.24307 30.4566C5.24243 30.0241 5.0703 29.6096 4.76445 29.3039C4.45861 28.9982 4.044 28.8263 3.61157 28.8259C3.39608 28.8259 3.18942 28.7403 3.03705 28.5879C2.88467 28.4355 2.79907 28.2289 2.79907 28.0134V20.4092C2.79907 20.1937 2.88467 19.987 3.03705 19.8347C3.18942 19.6823 3.39608 19.5967 3.61157 19.5967C4.04408 19.596 4.45868 19.424 4.7645 19.1181C5.07033 18.8123 5.24243 18.3977 5.24307 17.9652C5.24307 17.7497 5.32867 17.543 5.48105 17.3907C5.63342 17.2383 5.84008 17.1527 6.05557 17.1527H26C26.2155 17.1527 26.4222 17.2383 26.5745 17.3907C26.7269 17.543 26.8125 17.7497 26.8125 17.9652C26.8129 18.3966 26.9841 18.8104 27.2885 19.1161C27.593 19.4218 28.0061 19.5945 28.4375 19.5967C28.653 19.5967 28.8597 19.6823 29.012 19.8347C29.1644 19.987 29.25 20.1937 29.25 20.4092V28.0134C29.25 28.2289 29.1644 28.4355 29.012 28.5879C28.8597 28.7403 28.653 28.8259 28.4375 28.8259C28.0052 28.8263 27.5906 28.9983 27.2849 29.304C26.9792 29.6097 26.8073 30.0242 26.8068 30.4566C26.8068 30.6711 26.722 30.8769 26.5709 31.0291C26.4197 31.1813 26.2145 31.2676 26 31.2691ZM6.76895 29.6441H25.2939C25.4392 29.0815 25.7318 28.5678 26.1415 28.1558C26.5512 27.7438 27.0633 27.4484 27.625 27.3V21.1185C27.0618 20.972 26.5479 20.6779 26.1364 20.2663C25.7248 19.8548 25.4307 19.3409 25.2842 18.7777H6.76488C6.61857 19.341 6.32444 19.855 5.91291 20.2665C5.50137 20.6781 4.98738 20.9722 4.42407 21.1185V27.3C4.9877 27.4467 5.50188 27.7414 5.91342 28.1535C6.32497 28.5657 6.61892 29.0802 6.76488 29.6441H6.76895Z" fill="#1C1C1B"/>
<path d="M16.0258 28.6894C15.1399 28.6895 14.2739 28.427 13.5373 27.9349C12.8006 27.4428 12.2265 26.7433 11.8874 25.9249C11.5484 25.1065 11.4597 24.2059 11.6325 23.3371C11.8054 22.4682 12.232 21.6702 12.8585 21.0438C13.4849 20.4175 14.2831 19.991 15.1519 19.8183C16.0208 19.6456 16.9214 19.7345 17.7397 20.0737C18.5581 20.4129 19.2575 20.9871 19.7494 21.7239C20.2414 22.4606 20.5038 23.3266 20.5035 24.2125C20.5015 25.3994 20.0291 26.5371 19.1898 27.3763C18.3504 28.2155 17.2127 28.6877 16.0258 28.6894ZM16.0258 21.3582C15.4614 21.358 14.9097 21.5252 14.4403 21.8386C13.971 22.1521 13.6051 22.5976 13.389 23.119C13.1728 23.6403 13.1162 24.214 13.2261 24.7676C13.3361 25.3211 13.6077 25.8297 14.0066 26.2288C14.4056 26.628 14.914 26.8999 15.4675 27.0102C16.021 27.1205 16.5947 27.0641 17.1162 26.8483C17.6377 26.6325 18.0834 26.2669 18.3971 25.7977C18.7108 25.3285 18.8783 24.7769 18.8785 24.2125C18.878 23.4559 18.5774 22.7304 18.0425 22.1952C17.5077 21.6601 16.7824 21.3591 16.0258 21.3582Z" fill="#1C1C1B"/>
<path d="M33.1654 29.0777C32.957 29.0778 32.7565 28.9977 32.6054 28.854C32.4544 28.7104 32.3643 28.5141 32.3539 28.3059C32.3434 28.0977 32.4134 27.8935 32.5493 27.7354C32.6853 27.5774 32.8768 27.4776 33.0842 27.4568L34.0218 27.3585L32.3724 11.6553L6.21563 14.4016C6.00122 14.4241 5.78665 14.3605 5.61911 14.2248C5.45158 14.0891 5.34481 13.8924 5.32229 13.678C5.29977 13.4636 5.36335 13.249 5.49904 13.0815C5.63473 12.914 5.83141 12.8072 6.04582 12.7847L33.0078 9.95393C33.114 9.94267 33.2213 9.95245 33.3237 9.9827C33.4261 10.013 33.5216 10.0631 33.6046 10.1303C33.6876 10.1974 33.7565 10.2803 33.8075 10.3741C33.8585 10.4679 33.8904 10.5709 33.9016 10.6771L35.7208 27.9971C35.732 28.1033 35.7222 28.2106 35.692 28.313C35.6617 28.4154 35.6116 28.5109 35.5444 28.5939C35.4773 28.6769 35.3944 28.7458 35.3006 28.7968C35.2068 28.8478 35.1038 28.8797 34.9976 28.8909L33.2516 29.0745C33.2223 29.0761 33.1939 29.0777 33.1654 29.0777Z" fill="#1C1C1B"/>
<path d="M36.8607 24.2515C36.6586 24.2513 36.4638 24.1758 36.3144 24.0398C36.165 23.9038 36.0716 23.7169 36.0525 23.5157C36.0334 23.3145 36.09 23.1135 36.2112 22.9518C36.3324 22.79 36.5095 22.6793 36.7079 22.6411L37.2369 22.5396L34.2615 7.03219L8.79693 11.9169C8.692 11.9371 8.58412 11.9363 8.47948 11.9147C8.37483 11.8931 8.27546 11.8512 8.18703 11.7912C8.00845 11.6701 7.8853 11.4829 7.84468 11.271C7.82457 11.1661 7.82532 11.0582 7.8469 10.9535C7.86848 10.8489 7.91045 10.7495 7.97044 10.6611C8.03042 10.5727 8.10723 10.4969 8.19648 10.4382C8.28573 10.3795 8.38568 10.3389 8.49062 10.3188L34.7539 5.28125C34.9654 5.24076 35.1843 5.28587 35.3625 5.40669C35.5408 5.5275 35.6638 5.71412 35.7045 5.92557L38.9854 23.0295C39.0258 23.2411 38.9806 23.4601 38.8596 23.6384C38.7387 23.8167 38.5518 23.9396 38.3402 23.9801L37.0142 24.2344C36.9637 24.2449 36.9123 24.2506 36.8607 24.2515Z" fill="#1C1C1B"/>
</svg>
