<svg width="22" height="22" viewBox="0 0 22 22" fill="none" xmlns="http://www.w3.org/2000/svg">
<path d="M11.493 19.8007C10.3 19.8007 9.1067 19.5881 7.96983 19.1616C5.67471 18.3013 3.88305 16.6744 2.92481 14.5812C1.96658 12.4873 1.95736 10.1789 2.89858 8.08104C3.84019 5.98316 5.61968 4.34547 7.91042 3.47021C9.5648 2.83727 11.3531 2.65168 13.0813 2.93581C13.2371 2.96144 13.3593 3.07345 13.3866 3.21586C13.4142 3.35827 13.3415 3.502 13.2046 3.57482C10.0981 5.22668 8.80402 8.76325 10.1945 11.8011C11.5846 14.839 15.2469 16.4801 18.7166 15.6184C18.8687 15.5806 19.0325 15.6332 19.1241 15.752C19.2156 15.8701 19.2171 16.028 19.1274 16.1475C18.1334 17.4721 16.7341 18.5058 15.0808 19.1374C13.9247 19.58 12.7088 19.8007 11.493 19.8007ZM11.4907 3.49792C10.3756 3.49792 9.2594 3.70307 8.20191 4.10722C6.09759 4.91159 4.46278 6.41634 3.59798 8.34354C2.73348 10.2708 2.74202 12.3909 3.62232 14.314C4.50232 16.2378 6.14816 17.7318 8.25656 18.5226C10.365 19.3135 12.6848 19.3054 14.7891 18.5004C15.9943 18.0395 17.0518 17.3472 17.8927 16.474C14.3827 16.9079 10.8968 15.1272 9.49684 12.0683C8.09676 9.00889 9.16135 5.49118 11.9596 3.51008C11.8034 3.50193 11.6469 3.49792 11.4907 3.49792Z" fill="#BEBEBE"/>
</svg>
