<svg width="28" height="28" viewBox="0 0 28 28" fill="none" xmlns="http://www.w3.org/2000/svg">
<g clip-path="url(#clip0_8_8)">
<path d="M24.892 16.464C24.22 15.82 23.856 14.924 23.856 14C23.856 13.076 24.22 12.208 24.892 11.536C25.004 11.424 25.116 11.34 25.256 11.228C25.452 11.088 25.508 10.836 25.452 10.612C25.228 9.8 24.892 9.016 24.5 8.288C24.388 8.092 24.164 7.98 23.94 8.008C23.744 8.036 23.604 8.036 23.464 8.036C21.532 8.036 19.964 6.468 19.964 4.564C19.964 4.424 19.964 4.256 19.992 4.088C20.02 3.864 19.908 3.64 19.712 3.528C18.984 3.136 18.2 2.8 17.388 2.576C17.164 2.52 16.912 2.604 16.772 2.772C16.66 2.912 16.548 3.052 16.464 3.136C15.792 3.78 14.924 4.144 14 4.144C13.076 4.144 12.18 3.78 11.536 3.136C11.424 3.024 11.34 2.912 11.228 2.772C11.088 2.576 10.836 2.52 10.612 2.576C9.80005 2.828 9.01605 3.136 8.28805 3.528C8.09205 3.64 7.98005 3.864 8.00805 4.088C8.03605 4.284 8.03605 4.424 8.03605 4.564C8.03605 6.496 6.46805 8.036 4.53605 8.036C4.39605 8.036 4.22805 8.036 4.06005 8.008C3.83605 7.98 3.61205 8.092 3.50005 8.288C3.10805 9.016 2.77205 9.8 2.54805 10.612C2.49205 10.836 2.54805 11.088 2.74405 11.228C2.91205 11.34 3.02405 11.452 3.10805 11.536C4.48005 12.88 4.48005 15.092 3.10805 16.464C2.99605 16.576 2.88405 16.66 2.74405 16.772C2.54805 16.912 2.49205 17.164 2.54805 17.388C2.80005 18.2 3.10805 18.984 3.50005 19.712C3.61205 19.908 3.83605 20.02 4.06005 19.992C4.25605 19.964 4.39605 19.964 4.53605 19.964C6.46805 19.964 8.03605 21.532 8.03605 23.436C8.03605 23.576 8.03605 23.744 8.00805 23.912C7.98005 24.136 8.09205 24.36 8.28805 24.472C9.01605 24.864 9.80005 25.2 10.612 25.424C10.836 25.48 11.088 25.424 11.228 25.228C11.34 25.088 11.452 24.948 11.536 24.864C12.208 24.22 13.076 23.856 14 23.856C14.924 23.856 15.82 24.22 16.464 24.864C16.576 24.976 16.66 25.088 16.772 25.228C16.884 25.368 17.052 25.452 17.22 25.452C17.276 25.452 17.332 25.452 17.388 25.424C18.2 25.172 18.984 24.864 19.712 24.472C19.908 24.36 20.02 24.136 19.992 23.912C19.964 23.716 19.964 23.576 19.964 23.436C19.964 21.504 21.532 19.964 23.464 19.964C23.604 19.964 23.772 19.964 23.94 19.992C24.164 20.02 24.388 19.908 24.5 19.712C24.892 18.984 25.228 18.2 25.452 17.388C25.508 17.164 25.452 16.912 25.256 16.772C25.116 16.66 24.976 16.576 24.892 16.464ZM23.688 18.844H23.436C20.888 18.844 18.816 20.916 18.816 23.436V23.688C18.368 23.912 17.892 24.108 17.388 24.276L17.22 24.108C16.352 23.24 15.204 22.764 13.972 22.764C12.74 22.764 11.592 23.24 10.724 24.108L10.556 24.276C10.08 24.108 9.60405 23.912 9.12805 23.688V23.436C9.12805 20.888 7.05605 18.844 4.50805 18.844H4.25605C4.03205 18.396 3.83605 17.92 3.66805 17.416L3.83605 17.248C5.62805 15.456 5.62805 12.544 3.83605 10.724L3.66805 10.556C3.83605 10.08 4.03205 9.604 4.25605 9.128H4.50805C7.05605 9.128 9.12805 7.056 9.12805 4.536V4.284C9.57605 4.06 10.052 3.864 10.556 3.696L10.724 3.864C11.592 4.732 12.74 5.208 13.972 5.208C15.204 5.208 16.352 4.732 17.22 3.864L17.388 3.696C17.864 3.864 18.34 4.06 18.816 4.284V4.536C18.816 7.084 20.888 9.128 23.436 9.128H23.688C23.912 9.576 24.108 10.052 24.276 10.556L24.108 10.724C23.24 11.592 22.764 12.74 22.764 13.972C22.764 15.204 23.24 16.352 24.108 17.22L24.276 17.388C24.108 17.92 23.912 18.396 23.688 18.844ZM14 7.336C10.332 7.336 7.33605 10.332 7.33605 14C7.33605 17.668 10.332 20.664 14 20.664C17.668 20.664 20.664 17.668 20.664 14C20.664 10.332 17.668 7.336 14 7.336ZM14 19.544C10.948 19.544 8.45605 17.052 8.45605 14C8.45605 10.948 10.948 8.456 14 8.456C17.052 8.456 19.544 10.948 19.544 14C19.544 17.052 17.052 19.544 14 19.544Z" fill="#BEBEBE"/>
<path d="M460.32 -221.2V250.32H-39.1999V-221.2H460.32ZM462.56 -223.44H-41.4399V252.56H462.56V-223.44Z" fill="#0000FF"/>
</g>
<defs>
<clipPath id="clip0_8_8">
<rect width="28" height="28" fill="white"/>
</clipPath>
</defs>
</svg>
