<svg width="39" height="39" viewBox="0 0 39 39" fill="none" xmlns="http://www.w3.org/2000/svg">
<path d="M4.95624 19.3375V3.89999C4.95624 3.00624 5.68749 2.27499 6.58124 2.27499H14.7062L13.65 5.52499L8.04374 16.9812L4.95624 19.3375Z" fill="#58BF97"/>
<path d="M13.8125 5.52499H10.5625C10.5625 6.90624 9.50625 7.96249 8.125 7.96249V16.9H10.6438L13.8125 5.52499Z" fill="#38A378"/>
<path d="M10.5625 16.7375L12.1875 11.9437L13.8125 7.06874L15.4375 1.94999C15.6812 1.13749 16.6562 0.649993 17.4687 0.893742L31.3625 5.52499C32.175 5.76874 32.6625 6.74374 32.4187 7.55624L29.3312 16.8187" fill="#58BF97"/>
<path d="M30.875 16.9812H8.125C6.3375 16.9812 4.875 18.4437 4.875 20.2312V34.8562C4.875 36.6437 6.3375 38.1062 8.125 38.1062H30.875C32.6625 38.1062 34.125 36.6437 34.125 34.8562V20.2312C34.125 18.4437 32.6625 16.9812 30.875 16.9812Z" fill="#A15B4C"/>
<path d="M33.3125 33.2312H26.7313C24.9438 33.2312 23.5625 31.7687 23.5625 29.9812C23.5625 28.1937 24.9438 26.7312 26.7313 26.7312H33.3125" fill="#FEC367"/>
<path d="M13.975 17.7125C13.8938 17.7125 13.8125 17.7125 13.7313 17.6312C13.325 17.4687 13.0813 17.0625 13.2438 16.575L16.575 6.5C16.7375 6.09375 17.1438 5.85 17.6313 6.0125C18.4438 6.25625 19.4188 5.85 19.6625 4.95625C19.7438 4.7125 19.9063 4.55 20.0688 4.46875C20.2313 4.3875 20.475 4.3875 20.7188 4.3875L26.8938 6.41875C27.3 6.58125 27.5438 6.9875 27.3813 7.475C27.1375 8.2875 27.5438 9.2625 28.4375 9.50625C28.6813 9.5875 28.8438 9.75 28.925 9.9125C29.0063 10.075 29.0063 10.3187 29.0063 10.5625L26.8938 17.0625C26.7313 17.4687 26.325 17.7125 25.8375 17.55C25.4313 17.3875 25.1875 16.9812 25.35 16.4937L27.3 10.725C26.325 10.075 25.7563 8.9375 25.8375 7.8L21.0438 6.175C20.3938 7.15 19.2563 7.71875 18.1188 7.6375L15.0313 16.9812C14.625 17.4687 14.3 17.7125 13.975 17.7125Z" fill="#010101"/>
<path d="M25.9187 16.9L28.0312 10.4C26.7312 9.99375 26.0812 8.6125 26.4875 7.3125L20.3125 5.28125C19.9062 6.58125 18.525 7.23125 17.225 6.825L17.0625 7.39375L15.4375 12.1875L13.8937 16.9" fill="#38A378"/>
<path d="M23.6638 10.6547C23.9463 9.80286 23.4847 8.88329 22.6329 8.60078C21.7811 8.31827 20.8615 8.7798 20.579 9.63164C20.2965 10.4835 20.758 11.403 21.6098 11.6856C22.4617 11.9681 23.3812 11.5065 23.6638 10.6547Z" fill="#060707"/>
<path d="M26.8125 30.7125C27.2612 30.7125 27.625 30.3487 27.625 29.9C27.625 29.4513 27.2612 29.0875 26.8125 29.0875C26.3638 29.0875 26 29.4513 26 29.9C26 30.3487 26.3638 30.7125 26.8125 30.7125Z" fill="#060707"/>
<path d="M30.875 16.0875H30.4688L33.2313 7.88124C33.475 7.23124 33.3938 6.58124 33.0688 6.01249C32.7438 5.44374 32.2563 4.95624 31.6875 4.79374L17.7937 0.162494C17.1437 -5.56186e-06 16.4938 -5.56186e-06 15.925 0.324994C15.4375 0.568744 15.0313 0.974994 14.7875 1.46249H6.5C5.11875 1.46249 4.0625 2.59999 4.0625 3.89999L4.14375 19.3375V19.4187C4.0625 19.6625 4.0625 19.9062 4.0625 20.15V34.775C4.0625 37.05 5.85 38.8375 8.125 38.8375H30.875C33.15 38.8375 34.9375 37.05 34.9375 34.775V20.15C34.9375 17.875 33.15 16.0875 30.875 16.0875ZM16.25 2.27499C16.3313 2.03124 16.4937 1.86874 16.6562 1.78749C16.8188 1.70624 17.0625 1.62499 17.225 1.70624L31.1187 6.33749C31.3625 6.41874 31.525 6.58124 31.6063 6.74374C31.6875 6.90624 31.6875 7.14999 31.6063 7.31249L28.6812 16.0875H26.975L28.7625 10.725C28.8438 10.4812 28.8438 10.3187 28.6812 10.075C28.6 9.91249 28.4375 9.74999 28.1938 9.66874C27.3813 9.42499 26.8938 8.44999 27.1375 7.63749C27.3 7.23124 27.0562 6.74374 26.65 6.58124L20.475 4.54999C20.2313 4.46874 20.0688 4.46874 19.825 4.63124C19.6625 4.71249 19.5 4.87499 19.4187 5.11874C19.175 5.93124 18.2 6.41874 17.3875 6.17499C16.9812 6.01249 16.4938 6.25624 16.3313 6.66249L13.1625 16.1687H11.4563L16.25 2.27499ZM25.35 16.0875H15.0312L17.7937 7.79999C18.9312 7.88124 20.0688 7.31249 20.7188 6.33749L25.5125 7.96249C25.4312 9.09999 26 10.2375 26.975 10.8875L25.35 16.0875ZM9.9125 16.0875H8.9375V8.69374C10.075 8.36874 10.9687 7.47499 11.2937 6.33749H13.1625L9.9125 16.0875ZM6.5 3.08749H14.2188L13.65 4.71249H10.5625C10.3187 4.71249 10.1562 4.79374 9.99375 4.95624C9.83125 5.11874 9.75 5.28124 9.75 5.52499C9.75 6.41874 9.01875 7.14999 8.125 7.14999C7.6375 7.14999 7.3125 7.47499 7.3125 7.96249V16.1687C6.74375 16.25 6.175 16.575 5.6875 16.9V3.89999C5.6875 3.49374 6.0125 3.08749 6.5 3.08749ZM33.3125 32.3375H26.7313C25.4313 32.3375 24.375 31.2812 24.375 29.9C24.375 28.5187 25.4313 27.4625 26.7313 27.4625H33.3125V32.3375ZM33.3125 25.8375H26.7313C24.5375 25.8375 22.75 27.625 22.75 29.9C22.75 32.175 24.5375 33.9625 26.7313 33.9625H33.3125V34.775C33.3125 36.1562 32.2563 37.2125 30.875 37.2125H8.125C6.74375 37.2125 5.6875 36.1562 5.6875 34.775V20.15C5.6875 18.7687 6.74375 17.7125 8.125 17.7125H30.875C32.2563 17.7125 33.3125 18.7687 33.3125 20.15V25.8375Z" fill="#060707"/>
</svg>
